<svg height="2560" width="4096" xmlns:xlink="http://www.w3.org/1999/xlink" xmlns="http://www.w3.org/2000/svg"><defs><linearGradient id="a"><stop style="stop-color:#e01b24;stop-opacity:1" offset="0"/><stop style="stop-color:#c64600;stop-opacity:1" offset="1"/></linearGradient><linearGradient id="b"><stop style="stop-color:#c64600;stop-opacity:1" offset="0"/><stop style="stop-color:#ff7800;stop-opacity:1" offset="1"/></linearGradient><linearGradient id="c"><stop style="stop-color:#a51d2d;stop-opacity:1" offset="0"/><stop style="stop-color:#241f31;stop-opacity:1" offset="1"/></linearGradient><linearGradient xlink:href="#a" id="d" x1="1389.859" y1="2355.797" x2="2306.484" y2="1493.234" gradientUnits="userSpaceOnUse" gradientTransform="rotate(-45 -1032.247 8744.936)"/><linearGradient xlink:href="#b" id="e" gradientUnits="userSpaceOnUse" gradientTransform="rotate(-30 1238.239 474.018)" x1="963.205" y1="2614.625" x2="1645.266" y2="1909.375"/><linearGradient xlink:href="#c" id="f" gradientUnits="userSpaceOnUse" gradientTransform="rotate(-165 -3939.697 617.877)" x1="-10046.468" y1="2439.897" x2="-10046.468" y2="3778.128"/></defs><rect style="fill:url(#d);stroke-width:.0920004;stroke-linecap:round;-inkscape-stroke:none;stop-color:#000;fill-opacity:1;font-variation-settings:normal;opacity:1;vector-effect:none;stroke-linejoin:miter;stroke-miterlimit:4;stroke-dasharray:none;stroke-dashoffset:0;stroke-opacity:1;stop-opacity:1" width="4320" height="2720" x="-80" y="-80" rx="1.245" ry="1.245"/><path style="fill:url(#e);fill-opacity:1;stroke-width:.0920004;stroke-linecap:round;-inkscape-stroke:none;stop-color:#000" d="m1125.005 1157.306-98.312 366.905a80.076 80.076 150 0 1-98.073 56.622 80 80 60.055 0 1-56.475-98.033l93.136-347.587a80.076 80.076 60 0 0-56.623-98.073 80 80 149.945 0 0-97.925 56.662l-10.314 38.49a80.076 80.076 150 0 1-98.073 56.623 80 80 60.055 0 1-56.475-98.034l93.135-347.586a80.076 80.076 60 0 0-56.622-98.073 80 80 149.945 0 0-97.926 56.662l-187.79 700.842a80.076 80.076 150 0 1-98.073 56.622 80 80 60.055 0 1-56.475-98.033l53.204-198.56a80.076 80.076 60 0 0-56.622-98.074 80 80 149.945 0 0-97.926 56.662l-42.01 156.787a80.076 80.076 150 0 1-98.074 56.622 80 80 149.945 0 0-97.925 56.662l-444.49 1658.86a80.076 80.076 60 0 0 56.622 98.073 80 80 60.055 0 1 56.475 98.033 80 80 59.945 0 0 56.662 97.926 80 80 60.055 0 1 56.475 98.033 80 80 59.945 0 0 56.662 97.926 80 80 149.945 0 0 97.926-56.662 80 80 150.055 0 1 98.033-56.475l154.549 41.411a126.467 126.467 149.945 0 0 252.473-15.25 80 80 150.055 0 1 98.034-56.476l154.548 41.411a126.467 126.467 60.055 0 1 211.023 139.444l-82.782 308.95a80.076 80.076 60 0 0 56.622 98.072l154.548 41.411 154.548 41.411 154.548 41.412a97008044 97008044 15 0 0 309.097 82.822 153015440 153015440 15 0 1 154.548 41.41 126.467 126.467 149.945 0 0 252.474-15.25l41.371-154.401a80.076 80.076 150 0 1 98.073-56.622l154.548 41.41 154.548 41.412 154.549 41.41 154.548 41.412a104511470 104511470 15 0 0 309.096 82.822 81100030 81100030 15 0 1 154.548 41.41 80 80 149.945 0 0 97.926-56.66l41.372-154.402a80.076 80.076 150 0 1 98.072-56.622 80 80 149.945 0 0 97.926-56.662l662.537-2472.623a80.076 80.076 60 0 0-56.622-98.073 80 80 149.945 0 0-97.926 56.662l-239.924 895.409a80.076 80.076 150 0 1-98.073 56.622 80 80 60.055 0 1-56.475-98.033l32.869-122.669a80.076 80.076 60 0 0-56.623-98.072 80 80 149.945 0 0-97.925 56.661l-32.885 122.73a80.076 80.076 150 0 1-98.073 56.622 80 80 60.054 0 1-56.476-98.034l18.261-68.15a80.076 80.076 60 0 0-56.622-98.073 80 80 149.945 0 0-97.926 56.662l-83.417 311.317a80.076 80.076 150 0 1-98.073 56.623 83.402 83.402 58.86 0 1-59.712-98.83l12.717-56.826a83.481 83.481 58.807 0 0-59.86-98.869 78.655 78.655 149.459 0 0-96.611 57.002l-91.135 364.75a78.73 78.73 149.514 0 1-96.758 56.962 80 80 60.055 0 1-56.476-98.034l158.486-591.475a80.076 80.076 60 0 0-56.623-98.073 80 80 149.945 0 0-97.926 56.662l-129.155 482.015a80.076 80.076 150 0 1-98.073 56.622 80 80 60.055 0 1-56.475-98.034l64.765-241.706a80.076 80.076 60 0 0-56.623-98.072 80 80 149.945 0 0-97.925 56.662l-6.977 26.038a80.076 80.076 150 0 1-98.073 56.622 80 80 60.055 0 1-56.475-98.033l42.419-158.311a80.076 80.076 60 0 0-56.622-98.073 80 80 149.945 0 0-97.926 56.662l-91.73 342.342a80.076 80.076 150 0 1-98.073 56.622 80 80 60.055 0 1-56.476-98.033l49.324-184.077a80.076 80.076 60 0 0-56.623-98.073 80 80 149.945 0 0-97.925 56.662l-12.195 45.51a80.076 80.076 150 0 1-98.073 56.622 80 80 60.055 0 1-56.475-98.033l112.966-421.594a80.076 80.076 60 0 0-56.623-98.073 80 80 149.945 0 0-97.925 56.662l-124.037 462.91a80.076 80.076 150 0 1-98.073 56.622 80 80 60.055 0 1-56.475-98.033l204.438-762.974a80.076 80.076 60 0 0-56.622-98.073 80 80 149.946 0 0-97.926 56.662z"/><path style="font-variation-settings:normal;vector-effect:none;fill:url(#f);fill-opacity:1;stroke-width:.0435118;stroke-linecap:round;stroke-linejoin:miter;stroke-miterlimit:4;stroke-dasharray:none;stroke-dashoffset:0;stroke-opacity:1;-inkscape-stroke:none;stop-color:#000" d="m3112.274 1159.027 98.312-366.904a80.076 80.076 150 0 1 98.073-56.623 80 80 60.055 0 1 56.475 98.034L3272 1181.12a80.076 80.076 60 0 0 56.622 98.073 80 80 149.946 0 0 97.926-56.662l10.313-38.49a80.076 80.076 150 0 1 98.073-56.622 80 80 60.055 0 1 56.475 98.033l-93.135 347.586a80.076 80.076 60 0 0 56.622 98.073 80 80 149.945 0 0 97.926-56.662l187.79-700.841a80.076 80.076 150 0 1 98.073-56.623 80 80 60.055 0 1 56.475 98.034l-53.204 198.56a80.076 80.076 60 0 0 56.622 98.073 80 80 149.945 0 0 97.926-56.662l42.011-156.787a80.076 80.076 150 0 1 98.073-56.622 80 80 149.945 0 0 97.926-56.662l444.49-1658.86a80.076 80.076 60 0 0-56.623-98.073 80 80 60.055 0 1-56.475-98.033 80 80 59.945 0 0-56.662-97.926 80 80 60.055 0 1-56.475-98.033 80 80 59.945 0 0-56.662-97.926 80 80 149.945 0 0-97.926 56.662 80 80 150.055 0 1-98.033 56.475l-154.548-41.41a126.467 126.467 149.945 0 0-252.474 15.25 80 80 150.055 0 1-98.033 56.475 97008043 97008043 15 0 0-154.549-41.41 88343514 88343514 15 0 1-154.548-41.412 80 80 60.055 0 1-56.475-98.033l82.783-308.95a80.076 80.076 60 0 0-56.623-98.072l-154.548-41.411-154.548-41.411-154.548-41.412-154.548-41.41-154.548-41.412a146925380 146925380 15 0 1-309.097-82.822 80 80 149.945 0 0-97.925 56.662l-41.372 154.401a80.076 80.076 150 0 1-98.073 56.622l-154.548-41.41-154.548-41.412-154.548-41.41-154.548-41.412a132515290 132515290 15 0 0-309.097-82.822 89950327 89950327 15 0 1-154.548-41.41 80 80 149.945 0 0-97.925 56.66l-41.372 154.402a80.076 80.076 150 0 1-98.073 56.622 80 80 149.945 0 0-97.926 56.662L56.803 816.543a80.076 80.076 60 0 0 56.622 98.073 80 80 149.945 0 0 97.926-56.662L451.275-37.454a80.076 80.076 150 0 1 98.073-56.623 80 80 60.055 0 1 56.475 98.034l-32.869 122.668a80.076 80.076 60 0 0 56.623 98.073 80 80 149.945 0 0 97.926-56.662l32.885-122.73a80.076 80.076 150 0 1 98.073-56.622 80 80 60.054 0 1 56.475 98.034l-18.261 68.15a80.076 80.076 60 0 0 56.622 98.073 80 80 149.945 0 0 97.926-56.662l83.417-311.317a80.076 80.076 150 0 1 98.073-56.622 83.402 83.402 58.86 0 1 59.713 98.829l-12.718 56.826a83.481 83.481 58.807 0 0 59.86 98.869 78.655 78.655 149.459 0 0 96.611-57.002l91.135-364.749a78.73 78.73 149.514 0 1 96.759-56.963 80 80 60.055 0 1 56.475 98.034l-158.485 591.475a80.076 80.076 60 0 0 56.622 98.073 80 80 149.945 0 0 97.926-56.662l129.155-482.014a80.076 80.076 150 0 1 98.073-56.623 80 80 60.055 0 1 56.476 98.034l-64.765 241.706a80.076 80.076 60 0 0 56.622 98.073 80 80 149.945 0 0 97.926-56.662l6.977-26.039a80.076 80.076 150 0 1 98.073-56.622 80 80 60.055 0 1 56.475 98.033l-42.42 158.311a80.076 80.076 60 0 0 56.623 98.073 80 80 149.945 0 0 97.926-56.661l91.73-342.343a80.076 80.076 150 0 1 98.073-56.622 80 80 60.055 0 1 56.475 98.033l-49.323 184.077a80.076 80.076 60 0 0 56.622 98.073 80 80 149.945 0 0 97.926-56.662l12.194-45.51a80.076 80.076 150 0 1 98.073-56.622 80 80 60.055 0 1 56.475 98.034L2729.032 734.73a80.076 80.076 60 0 0 56.622 98.073 80 80 149.945 0 0 97.926-56.662l124.036-462.91a80.076 80.076 150 0 1 98.073-56.622 80 80 60.054 0 1 56.475 98.033l-204.438 762.974a80.076 80.076 60 0 0 56.622 98.073 80 80 149.946 0 0 97.926-56.662z"/></svg>